<svg width="35" height="26" viewBox="0 0 35 26" fill="none" xmlns="http://www.w3.org/2000/svg">
<path fill-rule="evenodd" clip-rule="evenodd" d="M5.38138 6.23756C5.35879 6.25822 5.31444 6.3011 5.26551 6.34929C5.23005 6.38422 5.2017 6.41246 5.14304 6.47112L1.89682 9.71723C1.81181 9.80625 1.75277 9.86604 1.61558 10.0032C1.53903 10.0798 1.48283 10.1386 1.3619 10.2671C1.13704 10.4847 0.899931 10.7444 0.677742 11.0186C0.468241 11.2403 0.300851 11.4984 0.183945 11.7804C-0.0567433 12.5136 -0.0567433 13.2264 0.157655 13.8883L0.186373 13.9654C0.304224 14.2445 0.470617 14.5003 0.677705 14.721C0.90009 14.9932 1.13717 15.2531 1.38789 15.4995C1.48283 15.6014 1.53903 15.6602 1.61558 15.7368L1.89682 16.018L4.85649 18.9823C4.99489 19.1207 5.06285 19.188 5.14159 19.2631C5.22551 19.3515 5.31363 19.4393 5.40211 19.5226C5.41793 19.5366 9.19008 23.3062 9.19008 23.3062C9.30658 23.4227 9.40056 23.5143 9.61196 23.7184C9.63439 23.7404 9.66846 23.775 9.67892 23.7859C9.73333 23.8432 9.76489 23.8763 9.78594 23.8973C10.2258 24.3377 10.7316 24.708 11.2849 24.9945C11.8517 25.2767 12.4416 25.4708 13.0501 25.5778C13.6249 25.6718 14.1943 25.7221 14.7651 25.7304C14.8633 25.7323 14.9449 25.7334 15.1268 25.7352C15.3024 25.7369 15.3797 25.7379 15.4748 25.7398L26.715 25.74C26.8309 25.7379 26.9092 25.7369 27.0867 25.7352C27.2703 25.7334 27.3528 25.7324 27.4582 25.7303C28.0313 25.7201 28.6048 25.6682 29.1722 25.5748C29.7941 25.4696 30.3924 25.2721 30.9508 24.9883C31.5135 24.7025 32.0272 24.3288 32.4724 23.8812C32.9152 23.4367 33.2869 22.9258 33.574 22.3671C33.8573 21.7999 34.052 21.2044 34.1567 20.5901C34.2519 20.016 34.3024 19.4398 34.3085 18.8623C34.3135 18.7434 34.3158 18.6298 34.3191 18.3784C34.3206 18.259 34.3214 18.2063 34.3227 18.1416L34.3228 7.55517C34.3214 7.47268 34.3206 7.4203 34.3191 7.303L34.3174 7.18113C34.3151 7.02745 34.3124 6.91213 34.3078 6.7973C34.3015 6.25368 34.253 5.68483 34.1632 5.12179C34.0536 4.49829 33.8595 3.90843 33.5843 3.35531C33.295 2.79043 32.9257 2.28337 32.4847 1.84257C32.0452 1.39969 31.5348 1.02743 30.9754 0.74255C30.4196 0.464127 29.8324 0.269675 29.2265 0.162375C28.6454 0.0698365 28.0751 0.0213004 27.5035 0.0143701C27.3145 0.00644033 27.1472 0.00476667 26.7769 0.00476667C26.6556 0.00261207 26.5138 0.00127432 26.3543 0.000604248C26.2343 9.99586e-05 26.1389 0 25.9237 0H16.3471C15.9176 0 15.7231 0.000813739 15.478 0.00489905C15.1236 0.00476667 14.9563 0.00644033 14.7407 0.0150618C14.1973 0.0208606 13.6279 0.0694658 13.0644 0.159781C12.4416 0.269234 11.8517 0.463343 11.2986 0.738539C10.7316 1.03205 10.2258 1.40227 9.78553 1.8431C9.76489 1.86373 9.73333 1.89682 9.68106 1.95185C9.66846 1.96504 9.61196 2.02164 9.61196 2.02164C9.40056 2.22574 9.30658 2.31726 9.19008 2.43376L8.70386 2.91996L5.47007 6.15832C5.44174 6.18094 5.41142 6.20752 5.38138 6.23756ZM25.9237 1.90667C26.1363 1.90667 26.2298 1.90676 26.3463 1.90725C26.4984 1.90789 26.6325 1.90916 26.7611 1.9113C27.1218 1.91143 27.2722 1.91294 27.4539 1.9202C27.9594 1.9267 28.4374 1.96738 28.9106 2.04261C29.3187 2.11503 29.7302 2.25132 30.1158 2.44445C30.4889 2.6345 30.8346 2.88657 31.134 3.18831C31.4371 3.49125 31.6886 3.83661 31.8822 4.21457C32.0708 4.59386 32.2074 5.00895 32.2828 5.43712C32.3554 5.89346 32.3961 6.3697 32.4019 6.847C32.4064 6.96937 32.4088 7.07036 32.4109 7.20944L32.4125 7.3282C32.4141 7.4498 32.4149 7.50507 32.4163 7.57423L32.4161 18.1229C32.4149 18.1745 32.4141 18.2299 32.4125 18.3535C32.4094 18.5883 32.4074 18.6908 32.4025 18.8148C32.3968 19.3219 32.3548 19.8007 32.2764 20.2741C32.2039 20.6993 32.0677 21.1157 31.873 21.5055C31.6808 21.8795 31.4255 22.2305 31.121 22.5361C30.8182 22.8405 30.4694 23.0943 30.0872 23.2884C29.7003 23.485 29.286 23.6218 28.8583 23.6942C28.3864 23.7718 27.9052 23.8154 27.4227 23.8239C27.3237 23.8259 27.2453 23.8269 27.0678 23.8286C26.8842 23.8304 26.8017 23.8314 26.6963 23.8335L15.4938 23.8333C15.4094 23.8315 15.3278 23.8304 15.1459 23.8286C14.9703 23.8269 14.893 23.8259 14.7979 23.824C14.3156 23.817 13.8398 23.775 13.369 23.698C12.9523 23.6247 12.5372 23.4881 12.148 23.2944C11.7827 23.1051 11.4362 22.8515 11.1346 22.5495L11.0602 22.4715C10.9862 22.394 10.9541 22.361 10.9173 22.3283C10.7274 22.1449 10.6409 22.0606 10.5383 21.958L6.75825 18.1781C6.72373 18.1467 6.70284 18.1276 6.68842 18.1149C6.62011 18.0491 6.56424 17.9927 6.51141 17.9366C6.40227 17.8309 6.34248 17.7718 6.20529 17.6347L3.24563 14.6703L2.96384 14.3886C2.90533 14.33 2.85826 14.2808 2.75038 14.1662C2.5156 13.9344 2.3186 13.7176 2.13433 13.4902L2.07667 13.4253C2.02861 13.3759 1.98872 13.3193 1.9584 13.2576C1.88505 13.0034 1.88532 12.7336 1.95922 12.4795C1.98781 12.4203 2.02598 12.3661 2.07227 12.3192L2.13725 12.2462C2.31849 12.0203 2.51346 11.8057 2.72106 11.6036C2.85826 11.4592 2.90533 11.41 2.96384 11.3514C3.11267 11.2026 3.17915 11.1353 3.26215 11.0479L6.20529 8.10534L6.4913 7.81934C6.54823 7.76241 6.57266 7.73808 6.6036 7.70761L6.66658 7.651C6.7124 7.60992 6.7378 7.58715 6.76301 7.56194L10.0526 4.26769L10.5383 3.78198C10.6409 3.6794 10.7274 3.59511 10.9173 3.41168C10.9541 3.37897 10.9862 3.34596 11.0577 3.27109L11.1342 3.19091C11.4362 2.88851 11.7827 2.63489 12.1617 2.43861C12.5372 2.25194 12.9523 2.11534 13.3805 2.04001C13.837 1.96695 14.3128 1.92634 14.7897 1.9209C14.9986 1.91294 15.149 1.91143 15.4938 1.91143C15.7408 1.90745 15.9281 1.90667 16.3471 1.90667H25.9237ZM16.8913 17.9153C16.814 17.9914 16.7215 18.0534 16.6173 18.0964C16.2962 18.229 15.9269 18.1549 15.6818 17.9087C15.3485 17.5739 15.3485 17.0327 15.6818 16.6979C15.7316 16.6479 15.7865 16.605 15.8451 16.5694L19.5438 12.8669L15.6818 9.00919L15.693 8.99793C15.6172 8.92073 15.5554 8.82852 15.5125 8.72462C15.38 8.40351 15.4541 8.03412 15.7002 7.78899C16.035 7.45565 16.5762 7.45565 16.911 7.78899C16.9593 7.83702 17.0009 7.88982 17.0356 7.94609L20.7525 11.6569L24.494 7.91155C24.5232 7.86845 24.5568 7.82742 24.5946 7.78907C24.8388 7.54381 25.2067 7.46998 25.5265 7.60206C25.8464 7.73414 26.055 8.04606 26.055 8.39214C26.055 8.62208 25.9629 8.83695 25.8073 8.99401L25.8177 9.00449L21.9619 12.8643L25.7182 16.6144C25.7547 16.6406 25.7896 16.6699 25.8226 16.7025C26.0678 16.9466 26.1417 17.3146 26.0096 17.6345C25.8775 17.9543 25.5656 18.163 25.2196 18.163C24.9884 18.163 24.7726 18.0699 24.6153 17.9128L24.6053 17.9229L20.7528 14.0746L16.9037 17.9277L16.8913 17.9153Z" fill="#A0A0CC"/>
</svg>
