<svg width="68" height="68" viewBox="0 0 68 68" fill="none" xmlns="http://www.w3.org/2000/svg">
<path d="M56.5533 25.3867C54.655 23.29 51.7933 22.0717 47.8267 21.6467V19.4933C47.8267 15.6117 46.1833 11.8717 43.2933 9.265C40.375 6.60167 36.5783 5.355 32.64 5.72334C25.8683 6.375 20.1733 12.92 20.1733 20.0033V21.6467C16.2067 22.0717 13.345 23.29 11.4467 25.3867C8.69833 28.4467 8.78333 32.5267 9.095 35.36L11.0783 51.1417C11.6733 56.6667 13.9117 62.3333 26.095 62.3333H41.905C54.0883 62.3333 56.3267 56.6667 56.9217 51.17L58.905 35.3317C59.2167 32.5267 59.3017 28.4467 56.5533 25.3867ZM33.0367 9.66167C35.87 9.40667 38.5617 10.285 40.6583 12.1833C42.7267 14.0533 43.8883 16.7167 43.8883 19.4933V21.4767H24.1117V20.0033C24.1117 14.96 28.2767 10.115 33.0367 9.66167ZM34 52.6433C28.0783 52.6433 23.2617 47.8267 23.2617 41.905C23.2617 35.9833 28.0783 31.1667 34 31.1667C39.9217 31.1667 44.7383 35.9833 44.7383 41.905C44.7383 47.8267 39.9217 52.6433 34 52.6433Z" fill="#A0A0CC"/>
<path d="M32.385 47.1467C31.8467 47.1467 31.3083 46.9483 30.8833 46.5233L28.0783 43.7183C27.2567 42.8967 27.2567 41.5367 28.0783 40.715C28.9 39.8933 30.26 39.8933 31.0817 40.715L32.4417 42.075L36.975 37.8817C37.825 37.0883 39.185 37.145 39.9783 37.995C40.7717 38.845 40.715 40.205 39.865 40.9983L33.83 46.58C33.405 46.9483 32.895 47.1467 32.385 47.1467Z" fill="#A0A0CC"/>
</svg>
