<svg width="24" height="24" viewBox="0 0 24 24" fill="none" xmlns="http://www.w3.org/2000/svg">
<path d="M8.25809 12.5216H10.0119V19.7419C10.0119 19.8845 10.1274 20 10.27 20H13.2437C13.3863 20 13.5018 19.8845 13.5018 19.7419V12.5556H15.518C15.6491 12.5556 15.7594 12.4572 15.7744 12.327L16.0806 9.66888C16.089 9.59575 16.0658 9.5225 16.0169 9.46763C15.9679 9.41272 15.8978 9.38128 15.8243 9.38128H13.5019V7.715C13.5019 7.21272 13.7723 6.958 14.3058 6.958C14.3819 6.958 15.8243 6.958 15.8243 6.958C15.9668 6.958 16.0823 6.84244 16.0823 6.69994V4.25997C16.0823 4.11741 15.9668 4.00191 15.8243 4.00191H13.7316C13.7169 4.00119 13.6841 4 13.6358 4C13.2727 4 12.0106 4.07128 11.0136 4.98844C9.909 6.00481 10.0626 7.22172 10.0993 7.43272V9.38122H8.25806C8.1155 9.38122 8 9.49672 8 9.63928V12.2635C8.00003 12.406 8.11553 12.5216 8.25809 12.5216Z" fill="#496BC2"/>
</svg>
