<svg width="25" height="22" viewBox="0 0 25 22" fill="none" xmlns="http://www.w3.org/2000/svg">
<path fill-rule="evenodd" clip-rule="evenodd" d="M10.8333 5.16675C10.8333 2.68147 12.848 0.666748 15.3332 0.666748C17.4748 0.666748 19.267 2.16276 19.7217 4.16675H23.4999C24.0522 4.16675 24.4999 4.61446 24.4999 5.16675C24.4999 5.71903 24.0522 6.16675 23.4999 6.16675H19.7217C19.267 8.17074 17.4748 9.66675 15.3332 9.66675C12.848 9.66675 10.8333 7.65203 10.8333 5.16675ZM15.3332 2.66675C13.9525 2.66675 12.8333 3.78604 12.8333 5.16675C12.8333 6.54746 13.9525 7.66675 15.3332 7.66675C16.714 7.66675 17.8332 6.54746 17.8332 5.16675C17.8332 3.78604 16.714 2.66675 15.3332 2.66675ZM1.33325 4.16675C0.780967 4.16675 0.333252 4.61446 0.333252 5.16675C0.333252 5.71903 0.780967 6.16675 1.33325 6.16675H8.33325C8.88554 6.16675 9.33325 5.71903 9.33325 5.16675C9.33325 4.61446 8.88554 4.16675 8.33325 4.16675H1.33325ZM1.33325 15.8334C0.780967 15.8334 0.333252 16.2811 0.333252 16.8334C0.333252 17.3857 0.780967 17.8334 1.33325 17.8334H5.11143C5.56616 19.8374 7.35833 21.3334 9.49992 21.3334C11.9852 21.3334 13.9999 19.3187 13.9999 16.8334C13.9999 14.3481 11.9852 12.3334 9.49992 12.3334C7.35833 12.3334 5.56616 13.8294 5.11143 15.8334H1.33325ZM16.4999 15.8334C15.9476 15.8334 15.4999 16.2811 15.4999 16.8334C15.4999 17.3857 15.9476 17.8334 16.4999 17.8334H23.4999C24.0522 17.8334 24.4999 17.3857 24.4999 16.8334C24.4999 16.2811 24.0522 15.8334 23.4999 15.8334H16.4999ZM6.99992 16.8334C6.99992 15.4527 8.11921 14.3334 9.49992 14.3334C10.8806 14.3334 11.9999 15.4527 11.9999 16.8334C11.9999 18.2141 10.8806 19.3334 9.49992 19.3334C8.11921 19.3334 6.99992 18.2141 6.99992 16.8334Z" fill="white"/>
</svg>
