<svg width="24" height="24" viewBox="0 0 24 24" fill="none" xmlns="http://www.w3.org/2000/svg">
<g opacity="0.7">
<path d="M7.75368 9.14111H4.51641C4.37273 9.14111 4.25632 9.25693 4.25632 9.39974V19.7414C4.25632 19.8842 4.37273 20 4.51641 20H7.75368C7.89736 20 8.01377 19.8842 8.01377 19.7414V9.39974C8.01377 9.25693 7.89736 9.14111 7.75368 9.14111Z" fill="#5082F6"/>
<path d="M6.1362 4C4.95829 4 4 4.95187 4 6.12189C4 7.2924 4.95829 8.24465 6.1362 8.24465C7.31317 8.24465 8.27071 7.29237 8.27071 6.12189C8.27074 4.95187 7.3132 4 6.1362 4Z" fill="#5082F6"/>
<path d="M15.988 8.88403C14.6878 8.88403 13.7266 9.43985 13.1436 10.0714V9.3997C13.1436 9.25688 13.0272 9.14107 12.8835 9.14107H9.78326C9.63957 9.14107 9.52316 9.25688 9.52316 9.3997V19.7413C9.52316 19.8842 9.63957 19.9999 9.78326 19.9999H13.0135C13.1572 19.9999 13.2736 19.8842 13.2736 19.7413V14.6246C13.2736 12.9004 13.7445 12.2287 14.9533 12.2287C16.2697 12.2287 16.3743 13.3055 16.3743 14.7134V19.7414C16.3743 19.8843 16.4907 20 16.6344 20H19.8658C20.0094 20 20.1259 19.8843 20.1259 19.7414V14.0688C20.1259 11.505 19.6342 8.88403 15.988 8.88403Z" fill="#5082F6"/>
</g>
</svg>
