<svg width="40" height="40" viewBox="0 0 40 40" fill="none" xmlns="http://www.w3.org/2000/svg">
<path d="M20 12.9167C16.85 12.9167 16.25 14.2334 16.25 16.6667V17.7001H23.75V16.6667C23.75 14.2334 23.15 12.9167 20 12.9167Z" fill=""/>
<path d="M20 25.1667C21.0125 25.1667 21.8333 24.3459 21.8333 23.3333C21.8333 22.3208 21.0125 21.5 20 21.5C18.9874 21.5 18.1666 22.3208 18.1666 23.3333C18.1666 24.3459 18.9874 25.1667 20 25.1667Z" fill=""/>
<path d="M20 3.33325C10.8 3.33325 3.33337 10.7999 3.33337 19.9999C3.33337 29.1999 10.8 36.6666 20 36.6666C29.2 36.6666 36.6667 29.1999 36.6667 19.9999C36.6667 10.7999 29.2 3.33325 20 3.33325ZM28.9667 24.1666C28.9667 27.8333 27.8334 28.9666 24.1667 28.9666H15.8334C12.1667 28.9666 11.0334 27.8333 11.0334 24.1666V22.4999C11.0334 19.6499 11.7167 18.3333 13.75 17.8833V16.6666C13.75 15.1166 13.75 10.4166 20 10.4166C26.25 10.4166 26.25 15.1166 26.25 16.6666V17.8833C28.2834 18.3333 28.9667 19.6499 28.9667 22.4999V24.1666Z" fill=""/>
</svg>
