<svg width="269" height="70" viewBox="0 0 269 70" fill="none" xmlns="http://www.w3.org/2000/svg">
<path d="M124.965 33.1773C130.151 34.6074 132.745 38.0204 132.745 43.4165C132.745 47.0012 131.648 49.8327 129.455 51.9111C127.263 53.9704 124.04 55 119.788 55H102.771V13.6713H116.156C120.56 13.6713 123.926 14.6724 126.252 16.6745C128.597 18.6575 129.77 21.4318 129.77 24.9974C129.77 26.8469 129.36 28.4867 128.54 29.9168C127.739 31.3278 126.548 32.4146 124.965 33.1773ZM116.242 20.793H111.036V30.5174H116.613C118.368 30.5174 119.683 30.0598 120.56 29.1446C121.438 28.2293 121.876 27.0281 121.876 25.5408C121.876 24.1108 121.399 22.9667 120.446 22.1087C119.493 21.2316 118.091 20.793 116.242 20.793ZM118.187 47.6495C120.341 47.6495 121.914 47.1633 122.906 46.1908C123.916 45.2184 124.422 43.979 124.422 42.4727C124.422 40.9282 123.916 39.6507 122.906 38.6401C121.895 37.6296 120.265 37.1243 118.015 37.1243H111.036V47.6495H118.187ZM153.023 55.572C149.896 55.572 147.121 54.9714 144.7 53.7702C142.278 52.5689 140.372 50.8052 138.98 48.4789C137.607 46.1527 136.92 43.4165 136.92 40.2704C136.92 35.5607 138.408 31.8426 141.382 29.116C144.357 26.3893 148.237 25.026 153.023 25.026C157.828 25.026 161.718 26.3893 164.692 29.116C167.667 31.8426 169.154 35.5607 169.154 40.2704C169.154 44.9991 167.667 48.7363 164.692 51.4821C161.718 54.2087 157.828 55.572 153.023 55.572ZM152.937 49.0224C155.339 49.0224 157.275 48.2215 158.743 46.6199C160.23 45.0182 160.974 42.9017 160.974 40.2704C160.974 37.6391 160.23 35.5226 158.743 33.9209C157.275 32.3193 155.339 31.5185 152.937 31.5185C150.63 31.5185 148.742 32.3288 147.274 33.9495C145.825 35.5512 145.1 37.6582 145.1 40.2704C145.1 42.8826 145.825 44.9991 147.274 46.6199C148.742 48.2215 150.63 49.0224 152.937 49.0224ZM189.003 55.572C185.876 55.572 183.102 54.9714 180.68 53.7702C178.259 52.5689 176.352 50.8052 174.96 48.4789C173.587 46.1527 172.901 43.4165 172.901 40.2704C172.901 35.5607 174.388 31.8426 177.362 29.116C180.337 26.3893 184.217 25.026 189.003 25.026C193.808 25.026 197.698 26.3893 200.672 29.116C203.647 31.8426 205.134 35.5607 205.134 40.2704C205.134 44.9991 203.647 48.7363 200.672 51.4821C197.698 54.2087 193.808 55.572 189.003 55.572ZM188.917 49.0224C191.32 49.0224 193.255 48.2215 194.723 46.6199C196.211 45.0182 196.954 42.9017 196.954 40.2704C196.954 37.6391 196.211 35.5226 194.723 33.9209C193.255 32.3193 191.32 31.5185 188.917 31.5185C186.61 31.5185 184.722 32.3288 183.254 33.9495C181.805 35.5512 181.081 37.6582 181.081 40.2704C181.081 42.8826 181.805 44.9991 183.254 46.6199C184.722 48.2215 186.61 49.0224 188.917 49.0224ZM230.789 55L221.322 42.6443H219.606V55H211.283V11.0686H219.606V36.9241H221.151L230.389 25.598H239.713L228.129 39.2408L240.8 55H230.789ZM266.484 25.598L253.556 48.6505H266.083V55H241.858L254.728 31.9475H242.859V25.598H266.484Z" fill="white"/>
<g clip-path="url(#clip0_55_3340)">
<path d="M35.845 59.7678C36.3473 61.0764 37.2266 62.2005 38.3679 62.9929C39.5092 63.7854 40.8593 64.2094 42.2416 64.2094C43.6239 64.2094 44.974 63.7854 46.1153 62.9929C47.2566 62.2005 48.136 61.0764 48.6383 59.7678H35.845Z" fill="#ECECEC"/>
<path d="M79.8052 24.3225V46.8591C79.8056 47.2938 79.6657 47.7167 79.4068 48.0628C79.148 48.409 78.7846 48.6593 78.3724 48.7755L46.4625 57.7851H84.4956V24.3225H79.8052Z" fill="#ECECEC"/>
<path d="M6.11909 48.7713C5.70937 48.6532 5.34867 48.4027 5.09161 48.0576C4.83455 47.7126 4.69512 47.2918 4.69443 46.8591V24.3225H0V57.781H38.029L6.11909 48.7713Z" fill="#ECECEC"/>
<path d="M28.0482 45.7155C27.8602 45.53 27.7106 45.3083 27.6082 45.0632C27.5059 44.8181 27.4528 44.5547 27.4522 44.2885V12.2943L18.2225 7.63184V44.7863L36.4614 53.995L28.0482 45.7155Z" fill="#ECECEC"/>
<path d="M57.027 12.2943V44.2885C57.0273 44.5549 56.9746 44.8186 56.8722 45.0638C56.7698 45.3089 56.6197 45.5306 56.431 45.7155L48.0219 53.9867L58.2516 48.8224L66.2607 44.7863V7.63184L57.027 12.2943Z" fill="#ECECEC"/>
<path d="M68.2164 18.7895V44.7856C68.2166 45.1561 68.1151 45.5194 67.9233 45.8345C67.7315 46.1496 67.4569 46.4041 67.1305 46.5693L52.2145 54.098L77.8379 46.8596V16.0725L68.2164 18.7895Z" fill="#ECECEC"/>
<path d="M17.3489 46.561C17.0225 46.3958 16.7479 46.1413 16.5561 45.8262C16.3643 45.5111 16.2628 45.1478 16.263 44.7773V18.7895L6.64148 16.0725V46.8596L24.4395 51.883L32.2649 54.0939L17.3489 46.561Z" fill="#ECECEC"/>
<path d="M41.2621 17.288L29.4117 5.63184V44.2879L35.8247 50.5971L41.2621 55.944V17.288Z" fill="#ECECEC"/>
<path d="M43.2213 17.288V55.944L55.0717 44.2879V5.63184L43.2213 17.288Z" fill="#ECECEC"/>
</g>
<defs>
<clipPath id="clip0_55_3340">
<rect width="84.4834" height="58.5752" fill="white" transform="translate(0 5.63184)"/>
</clipPath>
</defs>
</svg>
