<svg width="28" height="28" viewBox="0 0 28 28" fill="none" xmlns="http://www.w3.org/2000/svg">
<path fill-rule="evenodd" clip-rule="evenodd" d="M4.5 12.8333C4.5 8.23096 8.23096 4.5 12.8333 4.5C17.4357 4.5 21.1667 8.23096 21.1667 12.8333C21.1667 17.4357 17.4357 21.1667 12.8333 21.1667C8.23096 21.1667 4.5 17.4357 4.5 12.8333ZM12.8333 2.5C7.12639 2.5 2.5 7.12639 2.5 12.8333C2.5 18.5403 7.12639 23.1667 12.8333 23.1667C15.3267 23.1667 17.6138 22.2836 19.3989 20.8131L22.6262 24.0404C23.0168 24.431 23.6499 24.431 24.0404 24.0404C24.431 23.6499 24.431 23.0168 24.0404 22.6262L20.8131 19.3989C22.2836 17.6138 23.1667 15.3267 23.1667 12.8333C23.1667 7.12639 18.5403 2.5 12.8333 2.5Z" fill="#A0A0CC"/>
</svg>
