<svg width="36" height="36" viewBox="0 0 36 36" fill="none" xmlns="http://www.w3.org/2000/svg">
<path d="M31.605 7.845C29.19 7.605 26.775 7.425 24.345 7.29V7.275L24.015 5.325C23.79 3.945 23.46 1.875 19.95 1.875H16.02C12.525 1.875 12.195 3.855 11.955 5.31L11.64 7.23C10.245 7.32 8.84999 7.41 7.45499 7.545L4.39499 7.845C3.76499 7.905 3.31499 8.46 3.37499 9.075C3.43499 9.69 3.97499 10.14 4.60499 10.08L7.66499 9.78C15.525 9 23.445 9.3 31.395 10.095C31.44 10.095 31.47 10.095 31.515 10.095C32.085 10.095 32.58 9.66 32.64 9.075C32.685 8.46 32.235 7.905 31.605 7.845Z" fill=""/>
<path d="M28.845 12.21C28.485 11.835 27.99 11.625 27.48 11.625H8.51999C8.00999 11.625 7.49999 11.835 7.15499 12.21C6.80999 12.585 6.61499 13.095 6.64499 13.62L7.57499 29.01C7.73999 31.29 7.94999 34.14 13.185 34.14H22.815C28.05 34.14 28.26 31.305 28.425 29.01L29.355 13.635C29.385 13.095 29.19 12.585 28.845 12.21ZM20.49 26.625H15.495C14.88 26.625 14.37 26.115 14.37 25.5C14.37 24.885 14.88 24.375 15.495 24.375H20.49C21.105 24.375 21.615 24.885 21.615 25.5C21.615 26.115 21.105 26.625 20.49 26.625ZM21.75 20.625H14.25C13.635 20.625 13.125 20.115 13.125 19.5C13.125 18.885 13.635 18.375 14.25 18.375H21.75C22.365 18.375 22.875 18.885 22.875 19.5C22.875 20.115 22.365 20.625 21.75 20.625Z" fill=""/>
</svg>
