<svg width="34" height="12" viewBox="0 0 34 12" fill="none" xmlns="http://www.w3.org/2000/svg">
<path fill-rule="evenodd" clip-rule="evenodd" d="M24.9085 0.848873L24.5197 3.18307C23.3537 2.51586 20.7 2.358 20.7 3.58659C20.7 4.07478 21.3004 4.41053 22.0241 4.81519C23.1216 5.42891 24.5026 6.20114 24.5026 7.90407C24.5026 10.6249 21.6972 11.625 19.838 11.625C17.9788 11.625 16.7622 11.011 16.7622 11.011L17.1675 8.57098C18.2829 9.501 21.6633 9.76497 21.6633 8.29044C21.6633 7.67089 20.998 7.30549 20.2264 6.88176C19.1616 6.29701 17.8946 5.60116 17.8946 3.97295C17.8946 0.989001 21.1056 0.375 22.4578 0.375C23.7087 0.375 24.9085 0.848873 24.9085 0.848873ZM31.4981 11.4378H34L31.8186 0.569194H29.628C28.6165 0.569194 28.3702 1.37914 28.3702 1.37914L24.3066 11.4378H27.1468L27.7148 9.8234H31.1787L31.4981 11.4378ZM28.4998 7.59329L29.9315 3.52611L30.7369 7.59329H28.4998ZM7.46856 8.04479L10.0662 0.569495H12.9988L8.66368 11.4381H5.82467L3.45738 1.99606C1.92072 1.03726 0.607178 0.753521 0.607178 0.753521L0.657569 0.569495H4.95206C6.13374 0.569495 6.2446 1.54835 6.2446 1.54835L7.16145 6.43565L7.16117 6.43507L7.46856 8.04479ZM12.3587 11.4378H15.0835L16.7867 0.56955H14.0617L12.3587 11.4378Z" fill="#F6373F"/>
</svg>
