<svg width="28" height="28" viewBox="0 0 28 28" fill="none" xmlns="http://www.w3.org/2000/svg">
<path d="M12.9888 0.103779C11.8025 0.443642 10.5834 1.50709 9.64318 3.02003C9.33157 3.51886 8.79584 4.60423 8.52797 5.26751C8.4077 5.57448 8.31477 5.82664 8.3257 5.8376C8.33664 5.84308 8.61544 5.90338 8.94344 5.96368C10.1898 6.21036 11.5675 6.36932 12.9779 6.4351L13.5081 6.45703V3.22833C13.5081 0.186004 13.5027 -0.000372887 13.4152 0.00510883C13.3605 0.00510883 13.1692 0.0489621 12.9888 0.103779Z" fill="#A0A0CC"/>
<path d="M14.4922 3.22833V6.45703L15.0279 6.4351C16.4329 6.36932 17.8105 6.21036 19.0569 5.96368C19.3903 5.90338 19.6637 5.84308 19.6746 5.8376C19.7074 5.81019 19.2263 4.67001 18.9147 4.0451C17.9909 2.20326 16.9358 1.00277 15.6675 0.366897C15.3341 0.196966 14.7273 -0.000374317 14.5523 -0.000374317C14.5086 -0.000374317 14.4922 0.909583 14.4922 3.22833Z" fill="#A0A0CC"/>
<path d="M9.94409 0.554074C8.42435 1.01453 6.8554 1.81486 5.56526 2.78511C5.00766 3.21268 3.97992 4.13908 3.95259 4.24324C3.94712 4.27613 4.05646 4.35835 4.19859 4.42413C4.34072 4.48991 4.69606 4.6434 4.98033 4.76948C5.68553 5.08193 7.25994 5.6301 7.30914 5.57528C7.31461 5.5698 7.41301 5.31764 7.52234 5.01615C8.09088 3.48677 8.96555 2.06153 10.0644 0.866529C10.3104 0.603409 10.5017 0.384142 10.4908 0.389624C10.4798 0.389624 10.2338 0.460886 9.94409 0.554074Z" fill="#A0A0CC"/>
<path d="M17.887 0.811543C18.3681 1.3323 19.1607 2.3793 19.4723 2.91102C19.7839 3.45371 20.347 4.64323 20.5329 5.16399C20.7078 5.66282 20.5821 5.65186 21.7082 5.2791C22.4681 5.02146 24.0589 4.34722 24.0589 4.27596C24.0589 4.19373 22.9656 3.19059 22.4572 2.80687C21.1069 1.78728 19.4013 0.926658 17.8925 0.50457L17.4934 0.389455L17.887 0.811543Z" fill="#A0A0CC"/>
<path d="M2.78792 5.60198C2.02805 6.63802 1.55244 7.48219 1.05498 8.66075C0.513773 9.95443 0.147505 11.5222 0.0381712 13.0296L0.00537109 13.4846H3.01205H6.01873V13.0296C6.01873 11.5277 6.3358 9.22536 6.78953 7.40545C6.90434 6.93951 6.99727 6.55579 6.98634 6.55031C6.98087 6.54483 6.6802 6.44616 6.3194 6.33104C5.4502 6.06244 4.83246 5.81577 3.94686 5.39368C3.54232 5.20182 3.21432 5.04285 3.20885 5.04285C3.20339 5.04285 3.01205 5.29501 2.78792 5.60198Z" fill="#A0A0CC"/>
<path d="M24.4142 5.21826C23.7528 5.56909 22.7523 5.98022 21.8995 6.25978C21.4185 6.41327 21.0194 6.54483 21.0139 6.55031C21.003 6.55579 21.0959 6.93951 21.2107 7.40545C21.6645 9.22536 21.9815 11.5277 21.9815 13.0296V13.4846H24.9882H27.9949L27.9621 13.0296C27.7598 10.2888 26.8524 7.8385 25.2124 5.60198C24.9882 5.29501 24.786 5.04285 24.7696 5.04285C24.7532 5.04833 24.5946 5.12508 24.4142 5.21826Z" fill="#A0A0CC"/>
<path d="M7.91032 7.08751C7.46752 8.6169 7.11765 10.8425 7.02472 12.6733L6.98645 13.4846H10.2501H13.5082V10.4752V7.46575L12.8139 7.43286C11.2778 7.35063 9.97126 7.19166 8.67566 6.92854C8.32032 6.85728 8.01965 6.79698 8.00872 6.79698C8.00325 6.79698 7.95405 6.92854 7.91032 7.08751Z" fill="#A0A0CC"/>
<path d="M19.5489 6.88469C18.3954 7.14233 16.7226 7.35611 15.2193 7.43286L14.4922 7.46575V10.4752V13.4846H17.7503H21.0139L20.9757 12.6733C20.8991 11.1494 20.6531 9.38433 20.3087 7.95362C20.101 7.08203 20.0135 6.79698 19.9425 6.80247C19.9042 6.80795 19.7293 6.84084 19.5489 6.88469Z" fill="#A0A0CC"/>
<path d="M0.0328001 14.9218C0.207734 17.2734 0.929337 19.499 2.15934 21.4614C2.49281 21.9986 3.17615 22.9141 3.24175 22.9141C3.26361 22.9141 3.50415 22.8044 3.76655 22.6729C4.51548 22.2946 5.26989 21.9877 6.15002 21.6971C6.60376 21.5491 6.97549 21.423 6.98643 21.4121C6.99736 21.4066 6.93176 21.1161 6.83883 20.7707C6.39603 19.0659 6.11722 17.2241 6.02976 15.322L5.99149 14.4997L2.99575 14.4833L0 14.4723L0.0328001 14.9218Z" fill="#A0A0CC"/>
<path d="M7.00293 14.7827C7.00293 15.6872 7.22706 17.7428 7.44573 18.8995C7.58787 19.6614 7.93227 21.0592 7.9924 21.125C8.01973 21.1524 8.3368 21.1141 8.7632 21.0318C10.2064 20.7523 11.8628 20.5549 12.8359 20.5549C13.1092 20.5549 13.3716 20.5385 13.4208 20.522C13.4974 20.4891 13.5083 20.1712 13.5083 17.4797V14.4703H10.2556H7.00293V14.7827Z" fill="#A0A0CC"/>
<path d="M14.4922 17.4797C14.4922 20.1712 14.5031 20.4891 14.5797 20.522C14.6289 20.5385 14.8913 20.5549 15.1646 20.5549C16.1377 20.5549 17.7941 20.7523 19.2373 21.0318C19.6637 21.1141 19.9807 21.1524 20.0081 21.125C20.0682 21.0592 20.4126 19.6614 20.5547 18.8995C20.7734 17.7428 20.9975 15.6872 20.9975 14.7827V14.4703H17.7449H14.4922V17.4797Z" fill="#A0A0CC"/>
<path d="M22.0144 14.5381C21.998 14.5764 21.9761 14.9711 21.9597 15.4097C21.8887 17.1693 21.6044 19.0714 21.1616 20.7707C21.0687 21.1161 21.0031 21.4066 21.014 21.4121C21.0249 21.423 21.3967 21.5491 21.8504 21.6971C22.7306 21.9877 23.485 22.2946 24.2339 22.6729C24.4963 22.8044 24.7368 22.9141 24.7587 22.9141C24.8243 22.9141 25.5076 21.9986 25.8411 21.4614C27.0711 19.499 27.7927 17.2734 27.9677 14.9218L28.0005 14.4723H25.0156C22.6759 14.4723 22.0308 14.4887 22.0144 14.5381Z" fill="#A0A0CC"/>
<path d="M11.9231 21.6029C10.8133 21.6906 8.44079 22.0579 8.34239 22.1565C8.29866 22.2004 8.8016 23.4009 9.11866 24.0258C10.212 26.1691 11.6716 27.5779 13.1695 27.9233L13.5084 28V24.7713V21.5426L13.0055 21.5481C12.7267 21.5535 12.2401 21.5755 11.9231 21.6029Z" fill="#A0A0CC"/>
<path d="M14.4922 24.7713V28L14.8366 27.9233C16.329 27.5779 17.7886 26.1691 18.8819 24.0258C19.199 23.4009 19.702 22.2004 19.6582 22.1565C19.609 22.1072 18.6305 21.9263 17.6902 21.7947C16.6461 21.6467 15.4762 21.5426 14.8639 21.5426H14.4922V24.7713Z" fill="#A0A0CC"/>
<path d="M6.42899 22.6607C5.28099 23.0444 3.94165 23.62 3.94165 23.7296C3.94165 23.7899 4.66872 24.4751 5.19352 24.9027C6.16659 25.703 7.58793 26.5362 8.77967 27.0131C9.29901 27.2214 10.3595 27.5723 10.4634 27.5723C10.4907 27.5723 10.3158 27.3585 10.0698 27.1008C8.91634 25.8784 7.92687 24.223 7.41847 22.6497C7.3638 22.4962 7.32006 22.3647 7.3146 22.3702C7.30913 22.3702 6.91006 22.5017 6.42899 22.6607Z" fill="#A0A0CC"/>
<path d="M20.6423 22.4851C20.3854 23.2196 20.287 23.4663 20.0683 23.9377C19.5271 25.0943 18.7563 26.24 17.9527 27.0787C17.7231 27.3199 17.5481 27.5282 17.5645 27.5446C17.6028 27.583 18.5813 27.2706 19.2209 27.0129C20.3799 26.5525 21.7958 25.7247 22.7743 24.9299C23.3264 24.4804 24.059 23.7952 24.059 23.7294C24.059 23.6198 22.4682 22.9455 21.4404 22.6166C20.7516 22.3974 20.6751 22.3864 20.6423 22.4851Z" fill="#A0A0CC"/>
</svg>
